<svg id="banner15032021--6" xmlns="http://www.w3.org/2000/svg" width="118.923" height="118.923" viewBox="0 0 118.923 118.923">
  <path id="Trazado_3021" data-name="Trazado 3021" d="M91.444,103.638A12.194,12.194,0,1,0,79.25,91.444,12.208,12.208,0,0,0,91.444,103.638Zm0-20.9a8.71,8.71,0,1,1-8.71,8.71A8.72,8.72,0,0,1,91.444,82.734Z" transform="translate(-60.843 -60.843)" fill="#fff"/>
  <path id="Trazado_3022" data-name="Trazado 3022" d="M91.444,327.75a12.194,12.194,0,1,0,12.194,12.194A12.208,12.208,0,0,0,91.444,327.75Zm0,20.9a8.71,8.71,0,1,1,8.71-8.71A8.72,8.72,0,0,1,91.444,348.654Z" transform="translate(-60.843 -251.623)" fill="#fff"/>
  <path id="Trazado_3023" data-name="Trazado 3023" d="M113.7,0H62.945a5.206,5.206,0,0,0-3.484,1.335A5.206,5.206,0,0,0,55.977,0H5.226A5.232,5.232,0,0,0,0,5.226v5.226H3.484V5.226A1.744,1.744,0,0,1,5.226,3.484H20.008V6.247L6.246,20.008H3.484V13.936H0V55.977a5.206,5.206,0,0,0,1.335,3.484A5.206,5.206,0,0,0,0,62.945V113.7a5.232,5.232,0,0,0,5.226,5.226H55.977A5.232,5.232,0,0,0,61.2,113.7V62.945a5.2,5.2,0,0,0-.511-2.253,5.193,5.193,0,0,0,2.253.511H113.7a5.232,5.232,0,0,0,5.226-5.226V5.226A5.232,5.232,0,0,0,113.7,0Zm1.742,5.226V20.008h-2.762L98.915,6.247V3.484H113.7A1.744,1.744,0,0,1,115.439,5.226ZM95.431,57.719H81.211V53.514l-15.8-15.8H61.2V23.492h4.205l15.8-15.8V3.484h14.22V7.69l15.8,15.8h4.205v14.22h-4.205l-15.8,15.8ZM57.719,62.945V77.727H54.957L41.2,63.966V61.2H55.977a1.744,1.744,0,0,1,1.742,1.742ZM37.712,115.439H23.492v-4.205l-15.8-15.8H3.484V81.211H7.69l15.8-15.8V61.2h14.22v4.205l15.8,15.8h4.206v14.22H53.514l-15.8,15.8ZM3.484,55.977V41.2H6.246L20.008,54.957v2.762H5.226A1.744,1.744,0,0,1,3.484,55.977ZM20.008,61.2v2.762L6.246,77.727H3.484V62.945A1.744,1.744,0,0,1,5.226,61.2Zm35.97-3.484H41.2V54.957L54.957,41.2h2.763V55.977A1.744,1.744,0,0,1,55.977,57.719ZM62.945,3.484H77.727V6.247L63.966,20.008H61.2V5.226A1.744,1.744,0,0,1,62.945,3.484ZM57.719,5.226V20.008H54.957L41.2,6.246V3.484H55.977a1.744,1.744,0,0,1,1.742,1.742ZM7.69,23.492l15.8-15.8V3.484h14.22V7.69l15.8,15.8h4.206v14.22H53.514l-15.8,15.8v4.206H23.492V53.514l-15.8-15.8H3.484V23.492ZM3.484,113.7V98.915H6.246l13.761,13.761v2.762H5.226A1.744,1.744,0,0,1,3.484,113.7Zm52.493,1.742H41.2v-2.763L54.957,98.915h2.763V113.7A1.744,1.744,0,0,1,55.977,115.439ZM61.2,55.977V41.2h2.762L77.727,54.957v2.762H62.945A1.744,1.744,0,0,1,61.2,55.977ZM113.7,57.719H98.915V54.957L112.676,41.2h2.762V55.977A1.744,1.744,0,0,1,113.7,57.719Z" fill="#fff"/>
  <path id="Trazado_3024" data-name="Trazado 3024" d="M339.944,79.25a12.194,12.194,0,1,0,12.194,12.194A12.208,12.208,0,0,0,339.944,79.25Zm0,20.9a8.71,8.71,0,1,1,8.71-8.71A8.72,8.72,0,0,1,339.944,100.154Z" transform="translate(-251.623 -60.843)" fill="#fff"/>
  <path id="Trazado_3025" data-name="Trazado 3025" d="M218.5,30h3.484v3.484H218.5Z" transform="translate(-167.749 -23.032)" fill="#fff"/>
  <path id="Trazado_3026" data-name="Trazado 3026" d="M218.5,278.5h3.484v3.484H218.5Z" transform="translate(-167.749 -213.812)" fill="#fff"/>
  <path id="Trazado_3027" data-name="Trazado 3027" d="M467,30h3.484v3.484H467Z" transform="translate(-358.529 -23.032)" fill="#fff"/>
  <path id="Trazado_3028" data-name="Trazado 3028" d="M292.435,369.895a5.226,5.226,0,0,0-7.391,7.391l14.782,14.782a5.226,5.226,0,0,0,7.391-7.391ZM304.753,389.6a1.744,1.744,0,0,1-2.464,0l-14.782-14.782a1.742,1.742,0,1,1,2.463-2.463l14.782,14.782A1.744,1.744,0,0,1,304.753,389.6Z" transform="translate(-217.663 -282.806)" fill="#fff"/>
  <path id="Trazado_3029" data-name="Trazado 3029" d="M377.291,285.044a5.226,5.226,0,0,0-7.391,7.391l14.782,14.782a5.226,5.226,0,0,0,7.391-7.39Zm12.318,19.709a1.752,1.752,0,0,1-2.463,0l-14.782-14.782a1.742,1.742,0,0,1,2.463-2.463l14.782,14.782a1.752,1.752,0,0,1,0,2.463Z" transform="translate(-282.811 -217.663)" fill="#fff"/>
  <path id="Trazado_3030" data-name="Trazado 3030" d="M329.66,322.276,327.2,324.74l8.623,8.623a1.742,1.742,0,0,1-2.463,2.463L308.72,311.19a1.742,1.742,0,0,1,2.464-2.463l8.623,8.623,2.463-2.463-8.623-8.623a5.226,5.226,0,0,0-7.391,7.391l24.636,24.636a5.226,5.226,0,1,0,7.391-7.391Z" transform="translate(-233.948 -233.955)" fill="#fff"/>
  <path id="Trazado_3031" data-name="Trazado 3031" d="M0,0H3.484V3.484H0Z" transform="translate(88.303 85.858) rotate(-45)" fill="#fff"/>
</svg>
